<svg xmlns="http://www.w3.org/2000/svg" xmlns:xlink="http://www.w3.org/1999/xlink" xml:space="preserve" width="58" height="58" version="1.1" 
     style="shape-rendering:geometricPrecision; text-rendering:geometricPrecision; image-rendering:optimizeQuality; fill-rule:evenodd; clip-rule:evenodd" 
     
     viewBox="-10 -10 80 80"> 
    
    <defs>
        <style type="text/css">
            .fil0 {fill:#FFF; }
            .fil1 {fill:#000; }
            .str0 {stroke:#FFF; stroke-width:2.15;} /* nomes el prev y el next */
            g { display: none; position:absolute; }
            g:target { display:inline; }
        </style>                
    </defs>

    <g id="svg-logo">
        <path class="fil0" d="M30 14c4,0 7,1 10,4 6,-2 4,-6 2,-10 13,7 4,14 2,15 1,1 1,3 1,6 0,4 -2,8 -5,11 -2,8 -5,14 -15,10l-2 2c-2,-2 -3,-5 -3,-9 2,2 4,4 7,4l-1 2c5,1 9,-1 9,-7 -2,1 -4,1 -5,1 -9,0 -16,-6 -16,-14 0,-3 0,-5 1,-6 -2,-1 -10,-8 2,-15 -2,4 -4,8 2,10 3,-3 7,-4 11,-4zm-11 9c4,-1 9,6 9,8 0,3 -7,4 -9,3 -3,-1 -3,-9 0,-11zm21 0c-4,-1 -8,6 -8,8 0,3 7,4 9,3 2,-1 3,-9 -1,-11z"/>
        <ellipse class="fil0" cx="36" cy="31" rx="2" ry="1"/>
        <ellipse class="fil0" cx="24" cy="31" rx="2" ry="1"/>
    </g>
            
    <g id="svg-pantalla-completa">
        <path class="fil0" d="M11.278 39.267c-0.407,-0.407 -1.019,-0.528 -1.55,-0.308 -0.531,0.22 -0.878,0.739 -0.878,1.314l0 9.455c0,0.785 0.637,1.422 1.422,1.422l9.455 0c0.575,0 1.094,-0.346 1.314,-0.878 0.22,-0.532 0.098,-1.143 -0.308,-1.55l-9.455 -9.455z"/>
        <path class="fil0" d="M50.271 38.959c-0.531,-0.22 -1.143,-0.099 -1.549,0.308l-9.455 9.455c-0.407,0.407 -0.529,1.018 -0.308,1.55 0.22,0.531 0.738,0.878 1.313,0.878l9.455 0c0.786,0 1.423,-0.637 1.423,-1.422l0 -9.455c0,-0.575 -0.347,-1.094 -0.879,-1.314z"/>
        <path class="fil0" d="M49.727 8.851l-9.455 0c-0.575,0 -1.094,0.346 -1.314,0.878 -0.22,0.531 -0.098,1.143 0.309,1.549l9.455 9.455c0.272,0.272 0.635,0.417 1.006,0.417 0.183,0 0.368,-0.036 0.544,-0.109 0.531,-0.22 0.878,-0.738 0.878,-1.313l-0.001 -9.455c0,-0.786 -0.636,-1.422 -1.422,-1.422z"/>
        <path class="fil0" d="M9.728 21.041c0.532,0.221 1.143,0.099 1.55,-0.308l9.455 -9.455c0.407,-0.407 0.528,-1.018 0.308,-1.549 -0.22,-0.532 -0.739,-0.879 -1.313,-0.879l-9.456 0c-0.785,0 -1.422,0.637 -1.422,1.423l0 9.455c0,0.575 0.347,1.093 0.878,1.313z"/>
    </g>        
                
    <g id="svg-restaurar-pantalla">
        <path class="fil0" d="M19.727 38.851l-9.455 0c-0.575,0 -1.094,0.346 -1.314,0.878 -0.22,0.531 -0.098,1.143 0.309,1.549l9.455 9.455c0.272,0.272 0.635,0.417 1.006,0.417 0.183,0 0.368,-0.036 0.544,-0.109 0.531,-0.22 0.878,-0.738 0.878,-1.313l-0.001 -9.455c0,-0.786 -0.636,-1.422 -1.422,-1.422z"/>
        <path class="fil0" d="M39.727 51.041c0.532,0.22 1.144,0.099 1.55,-0.308l9.455 -9.455c0.407,-0.407 0.529,-1.018 0.309,-1.55 -0.22,-0.531 -0.739,-0.878 -1.314,-0.878l-9.455 0c-0.786,0 -1.423,0.637 -1.423,1.422l0 9.455c0,0.575 0.347,1.094 0.878,1.314z"/>
        <path class="fil0" d="M20.272 8.959c-0.532,-0.22 -1.143,-0.098 -1.55,0.308l-9.455 9.456c-0.407,0.406 -0.528,1.018 -0.308,1.549 0.22,0.532 0.739,0.879 1.314,0.879l9.455 0c0.785,0 1.422,-0.637 1.422,-1.423l0 -9.455c0,-0.575 -0.346,-1.094 -0.878,-1.314z"/>
        <path class="fil0" d="M41.277 9.267c-0.406,-0.406 -1.018,-0.528 -1.55,-0.308 -0.531,0.22 -0.878,0.739 -0.878,1.314l0 9.455c0,0.786 0.637,1.423 1.423,1.423l9.455 0c0.575,0 1.094,-0.347 1.314,-0.879 0.22,-0.531 0.098,-1.143 -0.309,-1.549l-9.455 -9.456z"/>
    </g>

    <g id="svg-github">
        <path class="fil0" d="M30.105 8.553c-12.121,0 -21.92,9.872 -21.92,22.084 0,9.762 6.278,18.025 14.988,20.949 1.089,0.22 1.488,-0.475 1.488,-1.059 0,-0.513 -0.035,-2.267 -0.035,-4.096 -6.098,1.317 -7.368,-2.632 -7.368,-2.632 -0.98,-2.559 -2.432,-3.217 -2.432,-3.217 -1.996,-1.353 0.145,-1.353 0.145,-1.353 2.215,0.146 3.376,2.267 3.376,2.267 1.959,3.363 5.117,2.413 6.387,1.828 0.181,-1.426 0.762,-2.413 1.379,-2.962 -4.863,-0.512 -9.98,-2.413 -9.98,-10.896 0,-2.413 0.871,-4.387 2.25,-5.922 -0.218,-0.549 -0.98,-2.816 0.218,-5.85 0,0 1.851,-0.585 6.024,2.266 1.786,-0.481 3.631,-0.731 5.481,-0.731 1.851,0 3.738,0.256 5.48,0.731 4.174,-2.851 6.025,-2.266 6.025,-2.266 1.197,3.034 0.435,5.301 0.217,5.85 1.416,1.535 2.25,3.509 2.25,5.922 0,8.483 -5.116,10.348 -10.016,10.896 0.798,0.695 1.488,2.011 1.488,4.095 0,2.961 -0.036,5.338 -0.036,6.069 0,0.585 0.399,1.28 1.488,1.061 8.71,-2.926 14.988,-11.188 14.988,-20.95 0.036,-12.212 -9.8,-22.084 -21.885,-22.084z"/>
    </g>

    <g id="svg-play">
        <path class="fil0 str0" d="M21.784 42.694c-1.345,0.005 -2.485,-1.073 -2.49,-2.355l-0.075 -20.66c-0.005,-1.281 1.135,-2.368 2.488,-2.373 0.297,-0.001 0.585,0.051 0.858,0.154 0.032,0.012 0.064,0.026 0.094,0.044l17.626 10.24c0.907,0.366 1.492,1.226 1.496,2.208 0.004,0.974 -0.548,1.8 -1.443,2.167l-17.607 10.37c-0.029,0.018 -0.06,0.033 -0.093,0.045 -0.272,0.105 -0.559,0.159 -0.854,0.16z"/>  
    </g>

    <g id="svg-pause">
        <rect class="fil0 str0" x="13.15" y="14.597" width="9.7" height="31.2" rx="1.377" ry="1.377"/>
        <rect class="fil0 str0" x="37.15" y="14.597" width="9.7" height="31.2" rx="1.377" ry="1.377"/>
    </g>

</svg>