<svg xmlns="http://www.w3.org/2000/svg" xmlns:xlink="http://www.w3.org/1999/xlink" xml:space="preserve" width="58" height="58" version="1.1" 
     style="shape-rendering:geometricPrecision; text-rendering:geometricPrecision; image-rendering:optimizeQuality; fill-rule:evenodd; clip-rule:evenodd" 
     
     viewBox="-10 -10 80 80"> 
    
    <defs>
        <style type="text/css">
            .fil0 {fill:#FFF; }
            .fil1 {fill:#000; }
            .str0 {stroke:#FFF; stroke-width:2.15;} /* nomes el prev y el next */
            g { display: none; position:absolute; }
            g:target { display:inline; }
        </style>                
    </defs>

    <g id="svg-logo">
        <path class="fil0" d="M30 14c4,0 7,1 10,4 6,-2 4,-6 2,-10 13,7 4,14 2,15 1,1 1,3 1,6 0,4 -2,8 -5,11 -2,8 -5,14 -15,10l-2 2c-2,-2 -3,-5 -3,-9 2,2 4,4 7,4l-1 2c5,1 9,-1 9,-7 -2,1 -4,1 -5,1 -9,0 -16,-6 -16,-14 0,-3 0,-5 1,-6 -2,-1 -10,-8 2,-15 -2,4 -4,8 2,10 3,-3 7,-4 11,-4zm-11 9c4,-1 9,6 9,8 0,3 -7,4 -9,3 -3,-1 -3,-9 0,-11zm21 0c-4,-1 -8,6 -8,8 0,3 7,4 9,3 2,-1 3,-9 -1,-11z"/>
        <ellipse class="fil0" cx="36" cy="31" rx="2" ry="1"/>
        <ellipse class="fil0" cx="24" cy="31" rx="2" ry="1"/>
    </g>
            
    <g id="svg-pantalla-completa">
        <path class="fil0" d="M12 35c0,0 -1,0 -2,0 -1,0 -1,1 -1,2l0 12c0,1 1,2 2,2l12 0c1,0 2,0 2,-1 0,-1 0,-2 0,-2l-13 -13z"/>
        <path class="fil0" d="M50 35c0,0 -1,0 -2,0l-12 13c-1,0 -1,1 -1,2 1,1 1,1 2,1l13 0c1,0 1,-1 1,-2l0 -12c0,-1 0,-2 -1,-2z"/>
        <path class="fil0" d="M50 8l-13 0c-1,0 -1,1 -2,2 0,0 0,1 1,2l12 12c1,0 1,1 2,1 0,0 0,0 0,0 1,-1 1,-1 1,-2l0 -13c0,-1 0,-2 -1,-2z"/>
        <path class="fil0" d="M10 24c1,1 1,1 2,0l12 -12c1,-1 1,-2 1,-2 0,-1 -1,-2 -2,-2l-12 0c-1,0 -2,1 -2,2l0 13c0,1 0,1 1,1z"/>
    </g>        
                
    <g id="svg-restaurar-pantalla">
        <path class="fil0" d="M21.638 51.268c0.543,0.544 1.36,0.706 2.071,0.412 0.709,-0.294 1.173,-0.987 1.173,-1.756l0 -12.633c0,-1.05 -0.851,-1.901 -1.901,-1.901l-12.633 0c-0.769,0 -1.462,0.463 -1.756,1.174 -0.294,0.709 -0.131,1.527 0.412,2.07l12.634 12.634z"/>
        <path class="fil0" d="M36.185 51.68c0.711,0.294 1.528,0.132 2.071,-0.412l12.634 -12.634c0.543,-0.544 0.706,-1.361 0.412,-2.07 -0.294,-0.711 -0.987,-1.174 -1.756,-1.174l-12.634 0c-1.049,0 -1.9,0.851 -1.9,1.901l0 12.633c0,0.769 0.463,1.462 1.173,1.756z"/>
        <path class="fil0" d="M10.348 25.144l12.633 0c1.05,0 1.901,-0.851 1.901,-1.9l0 -12.634c0,-0.768 -0.463,-1.461 -1.173,-1.755 -0.236,-0.098 -0.483,-0.145 -0.727,-0.145 -0.495,0 -0.981,0.193 -1.345,0.556l-12.633 12.634c-0.544,0.544 -0.706,1.361 -0.412,2.071 0.294,0.71 0.987,1.173 1.756,1.173z"/>
        <path class="fil0" d="M36.914 25.144l12.633 0c0.768,0 1.462,-0.463 1.755,-1.173 0.294,-0.71 0.132,-1.528 -0.412,-2.071l-12.633 -12.634c-0.364,-0.363 -0.85,-0.556 -1.345,-0.556 -0.245,0 -0.491,0.047 -0.726,0.145 -0.711,0.294 -1.174,0.987 -1.174,1.755l0.001 12.634c0,1.049 0.851,1.9 1.901,1.9z"/>
    </g>

    <g id="svg-github">
        <path class="fil0" d="M30.105 8.553c-12.121,0 -21.92,9.872 -21.92,22.084 0,9.762 6.278,18.025 14.988,20.949 1.089,0.22 1.488,-0.475 1.488,-1.059 0,-0.513 -0.035,-2.267 -0.035,-4.096 -6.098,1.317 -7.368,-2.632 -7.368,-2.632 -0.98,-2.559 -2.432,-3.217 -2.432,-3.217 -1.996,-1.353 0.145,-1.353 0.145,-1.353 2.215,0.146 3.376,2.267 3.376,2.267 1.959,3.363 5.117,2.413 6.387,1.828 0.181,-1.426 0.762,-2.413 1.379,-2.962 -4.863,-0.512 -9.98,-2.413 -9.98,-10.896 0,-2.413 0.871,-4.387 2.25,-5.922 -0.218,-0.549 -0.98,-2.816 0.218,-5.85 0,0 1.851,-0.585 6.024,2.266 1.786,-0.481 3.631,-0.731 5.481,-0.731 1.851,0 3.738,0.256 5.48,0.731 4.174,-2.851 6.025,-2.266 6.025,-2.266 1.197,3.034 0.435,5.301 0.217,5.85 1.416,1.535 2.25,3.509 2.25,5.922 0,8.483 -5.116,10.348 -10.016,10.896 0.798,0.695 1.488,2.011 1.488,4.095 0,2.961 -0.036,5.338 -0.036,6.069 0,0.585 0.399,1.28 1.488,1.061 8.71,-2.926 14.988,-11.188 14.988,-20.95 0.036,-12.212 -9.8,-22.084 -21.885,-22.084z"/>
    </g>

</svg>